<?xml version="1.0" encoding="UTF-8"?>
<svg xmlns="http://www.w3.org/2000/svg" viewBox="0 0 636.148 346.963">
  <defs>
    <style>
      .cls-1 {
        fill: none;
      }

      .cls-1, .cls-2, .cls-3 {
        stroke-width: 0px;
      }

      .cls-2 {
        fill: #1aa6a6;
      }

      .cls-3 {
        fill: #003da5;
      }
    </style>
  </defs>
  <g id="INFOS">
    <g>
      <path class="cls-1" d="M0,126.339c0-21.495,15.105-38.103,36.199-37.576.751.019,4.759.167,5.511.251v58.868c4.427-1.504,13.903-6.733,13.903-23.294,0-10.474-4.55-19.625-6.639-23.3l13.027-7.39c2.505,5.179,7.39,15.471,7.39,31.689,0,28.253-16.271,41.585-34.695,41.585C14.405,167.173,0,149.536,0,126.339ZM29.184,107.929c-7.348.502-15.406,7.399-15.406,19.663,0,15.213,10.731,19.747,15.406,20.916v-40.58Z"/>
      <path class="cls-1" d="M566.756,105.792c0-21.495,15.105-38.103,36.199-37.576.751.019,4.759.167,5.511.251v58.868c4.427-1.504,13.903-6.733,13.903-23.294,0-10.474-4.55-19.625-6.639-23.3l13.027-7.39c2.505,5.179,7.39,15.471,7.39,31.689,0,28.253-16.271,41.585-34.695,41.585-20.291,0-34.696-17.636-34.696-40.834ZM595.94,87.382c-7.348.502-15.406,7.399-15.406,19.663,0,15.213,10.731,19.747,15.406,20.916v-40.58Z"/>
      <g>
        <path class="cls-1" d="M373.921,69.391c21.495,0,38.103,15.105,37.576,36.199-.019.751-.167,4.759-.251,5.511h-58.868c1.504,4.427,6.733,13.903,23.294,13.903,10.474,0,19.625-4.55,23.3-6.639l7.39,13.027c-5.179,2.505-15.471,7.39-31.689,7.39-28.253,0-41.585-16.271-41.585-34.695,0-20.291,17.636-34.696,40.834-34.696ZM392.332,98.575c-.502-7.348-7.399-15.406-19.663-15.406-15.213,0-19.747,10.731-20.916,15.406h40.58Z"/>
        <path class="cls-1" d="M373.921,0c21.495,0,38.103,15.105,37.576,36.199-.019.751-.167,4.759-.251,5.511h-58.868c1.504,4.427,6.733,13.903,23.294,13.903,10.474,0,19.625-4.55,23.3-6.639l7.39,13.027c-5.179,2.505-15.471,7.39-31.689,7.39-28.253,0-41.585-16.271-41.585-34.695,0-20.291,17.636-34.696,40.834-34.696ZM392.332,29.184c-.502-7.348-7.399-15.406-19.663-15.406-15.213,0-19.747,10.731-20.916,15.406h40.58Z"/>
      </g>
      <g>
        <path class="cls-1" d="M373.921,277.572c21.495,0,38.103,15.105,37.576,36.199-.019.751-.167,4.759-.251,5.511h-58.868c1.504,4.427,6.733,13.903,23.294,13.903,10.474,0,19.625-4.55,23.3-6.639l7.39,13.027c-5.179,2.505-15.471,7.39-31.689,7.39-28.253,0-41.585-16.271-41.585-34.695,0-20.291,17.636-34.696,40.834-34.696ZM392.332,306.756c-.502-7.348-7.399-15.406-19.663-15.406-15.213,0-19.747,10.731-20.916,15.406h40.58Z"/>
        <path class="cls-1" d="M373.921,208.181c21.495,0,38.103,15.105,37.576,36.199-.019.751-.167,4.759-.251,5.511h-58.868c1.504,4.427,6.733,13.903,23.294,13.903,10.474,0,19.625-4.55,23.3-6.639l7.39,13.027c-5.179,2.505-15.471,7.39-31.689,7.39-28.253,0-41.585-16.271-41.585-34.695,0-20.291,17.636-34.696,40.834-34.696ZM392.332,237.365c-.502-7.348-7.399-15.406-19.663-15.406-15.213,0-19.747,10.731-20.916,15.406h40.58Z"/>
      </g>
    </g>
  </g>
  <g id="Heva_rvb">
    <g>
      <rect class="cls-1" width="636.148" height="346.963"/>
      <g>
        <g>
          <path class="cls-3" d="M138.272,180.96v27.234h18.573v-37.336c-4.71,5.328-11.216,9.008-18.573,10.102Z"/>
          <path class="cls-3" d="M87.949,147.591v-27.244h-18.448v37.268c4.694-5.275,11.15-8.922,18.448-10.024Z"/>
          <g>
            <path class="cls-3" d="M559.85,112.698h-83.017c-3.814,0-6.905-3.092-6.905-6.905h0c0-3.814,3.092-6.905,6.905-6.905h83.017c3.814,0,6.905,3.092,6.905,6.905h0c0,3.814-3.092,6.905-6.905,6.905h0Z"/>
            <path class="cls-3" d="M537.036,86.839h-83.017c-3.814,0-6.905-3.092-6.905-6.905h0c0-3.814,3.092-6.905,6.905-6.905h83.017c3.814,0,6.905,3.092,6.905,6.905h0c0,3.814-3.092,6.905-6.905,6.905Z"/>
            <path class="cls-3" d="M523.602,138.609h-83.017c-3.814,0-6.905-3.092-6.905-6.905h0c0-3.814,3.092-6.905,6.905-6.905h83.017c3.814,0,6.905,3.092,6.905,6.905h0c0,3.814-3.092,6.905-6.905,6.905h0Z"/>
          </g>
          <path class="cls-2" d="M87.972,208.195h-18.58v-30.08c0-12.757,10.378-23.135,23.134-23.135h41.145c2.511,0,4.554-2.042,4.554-4.553v-30.08h18.58v30.08c0,12.757-10.378,23.135-23.134,23.135h-41.145c-2.511,0-4.554,2.042-4.554,4.553v30.08Z"/>
          <path class="cls-3" d="M316.153,140.411h19.917l-32.819,66.139h-16.911l-32.819-66.139h20.919l20.919,47.976,20.794-47.976Z"/>
          <path class="cls-3" d="M213.437,138.789c21.495,0,38.103,15.105,37.576,36.199-.019.751-.167,4.759-.251,5.511h-58.868c1.504,4.427,6.733,13.903,23.294,13.903,10.474,0,19.625-4.55,23.3-6.639l7.39,13.027c-5.179,2.505-15.471,7.39-31.689,7.39-28.253,0-41.585-16.271-41.585-34.695,0-20.291,17.636-34.696,40.834-34.696ZM231.847,167.973c-.502-7.348-7.399-15.406-19.663-15.406-15.213,0-19.747,10.731-20.916,15.406h40.58Z"/>
          <path class="cls-3" d="M400.479,148.679l.251-8.267h17.537v66.141h-17.537l-.251-8.268h-.251c-3.758,3.091-13.676,9.896-26.932,9.896-23.912,0-36.955-14.694-36.955-34.699,0-18.202,13.933-34.699,38.332-34.699,15.218,0,23.968,8.311,25.555,9.896h.251ZM400.229,173.482c0-12.044-10.56-20.293-23.364-20.293-14.127,0-22.484,8.62-22.484,20.293,0,14.07,11.176,20.293,22.484,20.293,11.839,0,23.364-7.41,23.364-20.293Z"/>
        </g>
        <g>
          <path class="cls-3" d="M86.587,260.869c0,2.553-.408,7.304-6.275,7.304s-6.311-4.751-6.311-7.304v-13.827h-4.609v13.969c0,9.95,7.234,11.204,10.849,11.204,3.985,0,10.885-1.513,10.885-11.204v-13.969h-4.538v13.827Z"/>
          <path class="cls-3" d="M108.605,252.678c-4.073,0-5.922,2.015-6.488,2.703v-2.454h-4.22v18.933h4.396v-9.573c0-1.276.219-2.334.656-3.173s1.606-2.535,4.627-2.535c4.144,0,4.503,3.321,4.503,4.999v10.282h4.432v-10.85c0-3.921-1.791-8.332-7.906-8.332Z"/>
          <path class="cls-3" d="M131.118,252.678c-5.474,0-9.785,3.847-9.785,9.715,0,5.796,4.276,9.715,10.459,9.715,4.611,0,6.783-2.057,7.658-3.05l-2.411-2.765c-.662.686-2.218,2.092-5.141,2.092-4.201,0-5.848-2.719-6.123-4.574h14.845c.023-.188.071-1.11.071-1.276,0-6.24-4.318-9.856-9.573-9.856ZM131.118,256.294c4.532,0,5.253,3.876,5.338,4.574h-10.719c.119-1.503,1.39-4.574,5.381-4.574Z"/>
          <path class="cls-3" d="M243.649,252.678c-5.474,0-9.785,3.847-9.785,9.715,0,5.796,4.276,9.715,10.459,9.715,4.611,0,6.783-2.057,7.658-3.05l-2.411-2.765c-.662.686-2.218,2.092-5.141,2.092-4.201,0-5.848-2.719-6.123-4.574h14.845c.023-.188.071-1.11.071-1.276,0-6.24-4.318-9.856-9.573-9.856ZM243.649,256.294c4.532,0,5.253,3.876,5.338,4.574h-10.719c.119-1.503,1.39-4.574,5.381-4.574Z"/>
          <path class="cls-3" d="M301.971,252.678c-5.474,0-9.785,3.847-9.785,9.715,0,5.796,4.276,9.715,10.459,9.715,4.611,0,6.783-2.057,7.658-3.05l-2.411-2.765c-.662.686-2.218,2.092-5.141,2.092-4.201,0-5.848-2.719-6.123-4.574h14.845c.023-.188.071-1.11.071-1.276,0-6.24-4.318-9.856-9.573-9.856ZM301.971,256.294c4.532,0,5.253,3.876,5.338,4.574h-10.719c.119-1.503,1.39-4.574,5.381-4.574Z"/>
          <path class="cls-3" d="M171.606,244.489c-1.733,0-2.836,1.283-2.836,2.623,0,1.481,1.138,2.694,2.836,2.694,1.785,0,2.837-1.293,2.837-2.729s-1.099-2.588-2.837-2.588Z"/>
          <path class="cls-3" d="M193.517,244.489c-1.733,0-2.836,1.283-2.836,2.623,0,1.481,1.138,2.694,2.836,2.694,1.785,0,2.837-1.293,2.837-2.729s-1.099-2.588-2.837-2.588Z"/>
          <rect class="cls-3" x="169.408" y="252.927" width="4.396" height="18.933"/>
          <path class="cls-3" d="M163.523,245.304c-5.338,0-6.772,3.632-6.772,6.594v1.171h-3.12v3.545h3.12v15.246h4.396v-15.246h5.105v-3.545h-5.212v-1.171c0-.992.197-3.014,2.801-3.014.449,0,1.473.105,2.411.745l1.241-3.298c-.474-.354-1.668-1.027-3.971-1.027Z"/>
          <rect class="cls-3" x="180.364" y="245.552" width="4.396" height="26.308"/>
          <rect class="cls-3" x="191.319" y="252.927" width="4.396" height="18.933"/>
          <path class="cls-3" d="M209.47,252.678c-4.421,0-6.973,1.596-8.013,2.376l1.737,3.227c.732-.591,2.749-1.879,5.709-1.879,4.404,0,4.786,2.812,4.786,4.112v.283h-4.929c-1.914,0-3.451.249-4.608.745-1.159.496-3.263,1.7-3.263,4.893,0,3.09,2.512,5.673,7.056,5.673,4.139,0,5.521-1.901,5.957-2.566v2.318h4.184v-11.098c0-7.543-5.884-8.084-8.616-8.084ZM208.868,268.881c-2.783,0-3.616-1.427-3.616-2.588,0-.732.266-1.342.798-1.826s1.542-.727,3.031-.727h4.609v2.198c-.523,1.339-2.017,2.942-4.822,2.942Z"/>
          <rect class="cls-3" x="224.503" y="245.552" width="4.396" height="26.308"/>
          <path class="cls-3" d="M282.754,255.199c-.528-.597-2.364-2.521-6.062-2.521-5.548,0-9.572,3.882-9.572,9.715,0,6.044,4.236,9.715,9.572,9.715,4.069,0,5.751-2.057,6.312-2.763v2.515h4.219v-26.308h-4.468v9.647ZM277.224,268.349c-3.328,0-5.638-2.56-5.638-5.956,0-3.645,2.539-5.921,5.638-5.921,3.007,0,5.637,2.153,5.637,5.921,0,3.467-2.347,5.956-5.637,5.956Z"/>
          <path class="cls-3" d="M338.312,247.042h-10.885v24.818h10.885c7.937,0,13.508-4.817,13.508-12.409,0-7.055-5.053-12.409-13.508-12.409ZM338.028,267.959h-5.992v-17.019h5.992c5.821,0,9.183,3.643,9.183,8.51,0,4.662-3.255,8.509-9.183,8.509Z"/>
          <path class="cls-3" d="M369.228,246.687c-7.379,0-13.402,5.108-13.402,12.764,0,7.768,6.129,12.764,13.402,12.764,7.727,0,13.331-5.348,13.331-12.764,0-6.985-5.11-12.764-13.331-12.764ZM369.228,268.172c-5.155,0-8.793-3.812-8.793-8.722,0-4.726,3.461-8.723,8.793-8.723,4.586,0,8.687,3.114,8.687,8.723,0,4.556-3.218,8.722-8.687,8.722Z"/>
          <path class="cls-3" d="M480.166,246.687c-7.379,0-13.402,5.108-13.402,12.764,0,7.768,6.129,12.764,13.402,12.764,7.727,0,13.331-5.348,13.331-12.764,0-6.985-5.11-12.764-13.331-12.764ZM480.166,268.172c-5.155,0-8.793-3.812-8.793-8.722,0-4.726,3.461-8.723,8.793-8.723,4.586,0,8.687,3.114,8.687,8.723,0,4.556-3.218,8.722-8.687,8.722Z"/>
          <path class="cls-3" d="M400.074,250.728c3.634,0,5.708,1.939,6.63,2.908l2.979-2.801c-1.158-1.371-4.139-4.148-9.821-4.148-7.447,0-13.296,5.214-13.296,12.764,0,7.345,5.566,12.764,13.261,12.764,5.788,0,8.698-2.812,9.856-4.184l-2.979-2.801c-.922.992-2.996,2.942-6.63,2.942-5.507,0-8.899-4.024-8.899-8.722,0-4.479,3.181-8.723,8.899-8.723Z"/>
          <path class="cls-3" d="M422.127,247.042l-11.169,24.818h4.716l2.467-5.744h12.413l2.458,5.744h4.857l-11.204-24.818h-4.538ZM419.693,262.5l4.665-10.861,4.648,10.861h-9.312Z"/>
          <path class="cls-3" d="M457.776,248.087c-1.572-.697-3.457-1.046-5.655-1.046h-10.211v24.818h4.608v-7.162h5.603c2.198,0,4.083-.36,5.655-1.081,1.571-.721,4.91-2.645,4.91-7.747,0-5.142-3.339-7.085-4.91-7.782ZM451.908,260.797h-5.39v-9.856h5.39c5.659,0,6.134,3.369,6.134,4.929s-.475,4.928-6.134,4.928Z"/>
          <path class="cls-3" d="M517.003,264.839c0,3.333-2.472,7.375-10.034,7.375-5.356,0-8.722-2.104-9.785-2.979l1.595-3.581c.993.78,3.941,2.73,8.19,2.73,5.374,0,5.496-2.611,5.496-3.227,0-.757-.272-1.365-.816-1.826s-1.246-.827-2.109-1.099-1.82-.52-2.871-.745c-1.053-.224-2.108-.492-3.156-.833-5.005-1.625-5.797-4.025-5.797-6.559,0-3.369,2.381-7.41,9.999-7.41,1.488,0,5.07.185,8.261,2.197l-1.454,3.582c-2.919-1.765-5.756-1.95-6.843-1.95-3.329,0-5.389,1.218-5.389,3.368,0,0-.217,1.388,1.508,2.327,2.347,1.278,7.16,1.471,10.298,3.398,2.507,1.539,2.909,3.604,2.909,5.23Z"/>
          <polygon class="cls-3" points="518.918 250.941 527.143 250.941 527.143 271.86 531.752 271.86 531.752 250.941 539.978 250.941 539.978 247.042 518.918 247.042 518.918 250.941"/>
          <polygon class="cls-3" points="548.947 267.959 548.947 261.152 560.931 261.152 560.931 257.359 548.947 257.359 548.947 250.941 562.456 250.941 562.456 247.042 544.338 247.042 544.338 271.86 562.952 271.86 562.952 267.959 548.947 267.959"/>
        </g>
      </g>
    </g>
  </g>
</svg>